<?xml version="1.0"?>

<svg version="1.0" xmlns="http://www.w3.org/2000/svg" width="512.000000pt" height="512.000000pt" viewBox="0 0 512.000000 512.000000" preserveAspectRatio="xMidYMid meet">

<g transform="translate(0.000000,512.000000) scale(0.100000,-0.100000)" fill="#000000" stroke="none">
<path d="M1842 4063 c-33 -48 -343 -536 -358 -565 -11 -21 -14 -75 -14 -228&#xA;l0 -200 -80 0 -80 0 0 255 c0 315 10 295 -148 295 -105 0 -109 -1 -134 -27&#xA;-36 -39 -315 -398 -327 -422 -7 -13 -11 -168 -11 -449 0 -502 -6 -472 99 -480&#xA;l61 -4 0 -584 c0 -571 0 -584 20 -604 19 -19 33 -20 213 -20 175 0 196 2 210&#xA;18 14 16 17 45 17 190 l0 172 993 0 994 0 11 -38 c31 -103 154 -238 265 -291&#xA;82 -39 134 -50 238 -51 174 0 326 77 425 216 119 167 135 373 43 557 -36 70&#xA;-154 194 -207 216 l-32 13 0 449 0 449 50 0 50 0 0 -144 c0 -125 2 -147 18&#xA;-167 26 -31 78 -31 104 0 17 21 18 47 18 337 l0 314 43 0 c58 0 87 22 87 65 0&#xA;56 -35 75 -137 75 -76 0 -86 -2 -108 -25 -24 -23 -25 -28 -25 -170 l0 -145&#xA;-360 0 -360 0 0 203 0 204 -75 119 c-41 65 -128 202 -193 304 l-118 185 -586&#xA;3 -587 2 -19 -27z m1245 -321 l132 -207 -390 -3 c-215 -1 -563 -1 -774 0&#xA;l-384 3 132 207 132 208 510 0 510 0 132 -208z m-1917 -812 l0 -550 -170 0&#xA;-170 0 0 368 0 367 143 182 c123 158 146 183 170 183 l27 0 0 -550z m2110 70&#xA;l0 -390 -835 0 -835 0 0 390 0 390 835 0 835 0 0 -390z m-1810 -292 c0 -164 4&#xA;-240 15 -287 43 -182 195 -338 376 -386 79 -21 1089 -21 1168 0 132 35 266&#xA;141 329 261 52 101 62 162 62 412 l0 222 80 0 80 0 0 -443 0 -443 -65 -43&#xA;c-36 -23 -82 -62 -102 -87 l-37 -44 -1033 0 -1033 0 0 530 0 530 80 0 80 0 0&#xA;-222z m2430 -200 l0 -423 -90 0 -90 0 0 423 0 422 90 0 90 0 0 -422z m-630&#xA;-48 c0 -5 -9 -34 -21 -65 -29 -77 -104 -156 -187 -197 l-67 -33 -550 0 -550 0&#xA;-57 27 c-77 36 -151 107 -188 181 -54 108 -147 97 795 97 522 0 825 -4 825&#xA;-10z m-2100 -760 l0 -541 -87 3 -88 3 -3 538 -2 537 90 0 90 0 0 -540z m2805&#xA;211 c81 -40 165 -129 196 -208 18 -45 23 -78 24 -148 0 -81 -4 -97 -32 -157&#xA;-39 -84 -109 -155 -188 -194 -55 -26 -69 -29 -165 -29 -94 0 -111 3 -166 28&#xA;-116 54 -206 173 -222 296 -27 197 85 375 274 435 80 26 200 16 279 -23z&#xA;m-679 -203 c-3 -13 -9 -43 -12 -68 -3 -25 -7 -55 -10 -68 l-4 -22 -978 2 -977&#xA;3 -3 74 c-2 41 -1 80 2 88 4 11 176 13 997 13 l991 0 -6 -22z"></path>
<path d="M3708 1750 c-70 -37 -118 -119 -118 -202 0 -19 12 -58 26 -87 62&#xA;-124 221 -157 329 -68 120 99 90 303 -54 363 -48 20 -138 17 -183 -6z m152&#xA;-140 c30 -30 27 -83 -6 -109 -35 -28 -69 -26 -99 4 -30 30 -32 64 -4 99 26 33&#xA;79 36 109 6z"></path>
</g>
</svg>