<?xml version="1.0"?><svg version="1.0" xmlns="http://www.w3.org/2000/svg" width="512.000000pt" height="512.000000pt" viewBox="0 0 512.000000 512.000000" preserveAspectRatio="xMidYMid meet">

<g transform="translate(0.000000,512.000000) scale(0.100000,-0.100000)" fill="#000000" stroke="none">
<path d="M1285 4511 c-22 -10 -52 -31 -67 -47 -54 -58 -58 -82 -58 -344 l0 -240 -46 0 c-106 0 -190 -46 -225 -124 -17 -37 -19 -70 -19 -311 0 -303 4 -321 73 -382 42 -37 91 -53 165 -53 l52 0 0 -237 c0 -266 10 -348 60 -490 47 -134 48 -123 -15 -167 -113 -81 -124 -171 -37 -318 57 -95 92 -124 164 -134 39 -5 60 0 153 40 l108 45 86 -54 c105 -66 204 -109 330 -143 90 -24 113 -26 386 -29 265 -4 299 -3 393 17 57 11 140 34 184 50 45 17 83 30 84 30 2 0 4 -10 6 -21 4 -31 298 -395 329 -409 35 -15 68 2 134 69 l49 51 281 -280 c179 -179 288 -280 301 -280 11 0 30 7 43 16 23 16 25 15 105 -64 94 -93 127 -112 193 -112 135 1 231 127 193 253 -9 30 -36 66 -98 129 l-85 87 16 32 c11 24 13 39 6 58 -6 14 -222 238 -481 497 l-471 472 36 83 c71 164 80 221 84 530 l5 276 72 5 c88 6 143 33 183 91 l28 40 3 276 c2 184 0 289 -8 314 -26 89 -117 147 -232 147 l-48 0 0 245 c0 270 -3 287 -67 347 -64 61 2 58 -1205 58 -1052 0 -1105 -1 -1143 -19z m2254 -144 l22 -24 -3 -939 -3 -939 -27 -85 c-41 -129 -57 -165 -71 -151 -16 16 -49 14 -76 -5 -22 -16 -25 -14 -239 198 -193 191 -225 218 -292 251 -109 53 -194 70 -315 64 -131 -6 -200 -31 -389 -140 l-150 -86 -25 18 c-45 32 -118 43 -170 26 -10 -3 -108 -73 -217 -154 -109 -82 -201 -148 -205 -145 -11 7 -58 166 -69 234 -6 41 -10 400 -10 956 0 887 0 891 21 918 l20 26 1088 0 1088 0 22 -23z m-2381 -924 l2 -293 -49 0 c-34 0 -56 6 -75 21 l-26 20 0 253 c0 228 2 254 18 268 25 22 42 27 87 25 l40 -2 3 -292z m2672 272 c19 -17 20 -31 20 -270 0 -296 2 -289 -86 -290 l-59 0 -3 280 c-1 154 0 286 3 294 8 19 99 9 125 -14z m-1145 -1130 c117 -31 167 -67 380 -277 l200 -197 -42 -43 -43 -42 -193 192 c-168 166 -203 196 -263 224 -62 30 -78 33 -159 33 -104 -1 -121 -7 -312 -116 -68 -39 -125 -70 -127 -68 -1 2 -15 25 -29 51 l-27 47 22 14 c52 32 216 126 256 146 99 50 228 64 337 36z m-714 -305 c51 -87 78 -144 77 -160 -3 -22 -36 -38 -348 -172 -198 -85 -352 -146 -362 -142 -22 7 -90 129 -86 154 2 12 118 105 298 240 221 166 301 220 318 218 19 -2 40 -31 103 -138z m675 43 c42 -14 78 -44 241 -206 182 -180 191 -191 178 -211 -19 -26 -19 -57 0 -82 8 -10 15 -22 15 -25 0 -12 -178 -88 -260 -111 -80 -22 -102 -23 -385 -23 -279 0 -306 2 -389 23 -49 12 -126 40 -172 61 -145 68 -148 57 49 141 94 40 184 82 200 92 36 26 60 72 67 132 l5 49 135 79 c180 105 218 114 316 81z m1616 -1295 l-102 -103 -470 470 -470 470 102 102 103 103 470 -470 470 -470 -103 -102z m-813 356 l-26 -26 -88 109 c-48 59 -92 114 -98 121 -6 8 -5 17 4 28 11 13 27 1 123 -95 l111 -111 -26 -26z m1040 -499 c74 -78 81 -96 55 -133 -29 -41 -61 -29 -146 55 l-78 77 37 38 c20 21 42 38 49 38 6 0 44 -34 83 -75z"></path>
<path d="M1575 4015 l-25 -24 0 -346 c0 -332 1 -346 20 -365 20 -20 33 -20 860 -20 827 0 840 0 860 20 19 19 20 33 20 368 l0 349 -23 21 -23 22 -833 0 -832 0 -24 -25z m1595 -365 l0 -250 -740 0 -740 0 0 250 0 250 740 0 740 0 0 -250z"></path>
<path d="M2427 3838 c-27 -24 -162 -249 -179 -299 -23 -67 59 -126 119 -84 32 22 183 290 183 324 0 65 -75 102 -123 59z"></path>
<path d="M2144 3819 c-32 -16 -154 -231 -154 -272 0 -72 86 -104 132 -48 33 38 138 225 138 245 0 28 -22 64 -47 75 -29 13 -41 13 -69 0z"></path>
<path d="M632 2297 c-35 -37 -28 -73 38 -177 33 -52 60 -97 60 -101 0 -4 -51 -24 -112 -45 -148 -48 -186 -68 -194 -99 -9 -35 12 -80 44 -95 15 -7 92 -41 171 -76 80 -35 146 -66 148 -68 2 -2 -30 -73 -72 -157 -81 -163 -85 -186 -43 -221 34 -30 70 -21 189 45 63 35 148 82 190 105 l75 41 44 -195 c27 -122 51 -205 63 -220 23 -29 75 -32 105 -6 24 20 172 367 172 403 0 54 -52 89 -105 69 -19 -7 -35 -30 -60 -82 -20 -45 -35 -67 -38 -58 -3 8 -17 67 -32 131 -41 181 -58 188 -235 90 -69 -38 -126 -68 -128 -66 -1 1 11 32 28 69 32 73 37 112 18 139 -7 9 -60 37 -118 62 -58 26 -108 50 -112 54 -5 4 31 19 78 35 47 15 94 36 105 47 31 31 24 77 -21 144 -21 32 -38 60 -37 62 2 1 22 -3 45 -9 52 -13 94 2 111 38 16 36 14 50 -11 79 -19 22 -46 31 -158 55 -162 36 -180 37 -208 7z"></path>
</g>
</svg>